# xmcd
#
# Track frame offsets: 
#        150
#        15033
#        29873
#        42832
#        58384
#        77116
#        91850
#        112018
#        124972
#        140521
#        154064
#
# Disc length: 2263 seconds
#
# Revision: 0
# Processed by: cddbd v1.5.2PL0 Copyright (c) Steve Scherf et al.
# Submitted via: ExactAudioCopyFreeDBPlugin 1.0
#
DISCID=9108d50b
DTITLE=Midnight River Choir - Freedom Wine
DYEAR=2009
DGENRE=Country
TTITLE0=Jim Beam 
TTITLE1=Mountain Top
TTITLE2=Back Down To Broke
TTITLE3=Thinkin' About
TTITLE4=Loving You
TTITLE5=Fools Of Love
TTITLE6=Mexico Or Never
TTITLE7=Rather Love A Memory
TTITLE8=Still In Love With You
TTITLE9=Rock 'N' Roll Shoes (Far From Bein' Gone)
TTITLE10=You Broke Another Heart Tonight
EXTD=
EXTT0=
EXTT1=
EXTT2=
EXTT3=
EXTT4=
EXTT5=
EXTT6=
EXTT7=
EXTT8=
EXTT9=
EXTT10=
PLAYORDER=
